<svg width="129" height="35" viewBox="0 0 129 35" fill="none" xmlns="http://www.w3.org/2000/svg">
<path fill-rule="evenodd" clip-rule="evenodd" d="M0 17.5C0 7.83502 7.83502 0 17.5 0C27.165 0 35 7.83502 35 17.5C35 27.165 27.165 35 17.5 35C7.83502 35 0 27.165 0 17.5Z" fill="#3B5998"/>
<rect width="35" height="35" rx="5" fill="#3B5998"/>
<path fill-rule="evenodd" clip-rule="evenodd" d="M19.324 27.7896V18.2687H21.9522L22.3005 14.9877H19.324L19.3285 13.3456C19.3285 12.4899 19.4098 12.0313 20.6389 12.0313H22.2819V8.75H19.6534C16.496 8.75 15.3847 10.3416 15.3847 13.0182V14.9881H13.4167V18.2691H15.3847V27.7896H19.324Z" fill="white"/>
<path fill-rule="evenodd" clip-rule="evenodd" d="M47 17.5C47 7.83502 54.835 0 64.5 0C74.165 0 82 7.83502 82 17.5C82 27.165 74.165 35 64.5 35C54.835 35 47 27.165 47 17.5Z" fill="url(#paint0_linear_8_429)"/>
<rect x="47" width="35" height="35" rx="5" fill="url(#paint1_linear_8_429)"/>
<path fill-rule="evenodd" clip-rule="evenodd" d="M59.7079 17.5001C59.7079 14.8531 61.854 12.7069 64.501 12.7069C67.1479 12.7071 69.2933 14.8531 69.2933 17.5001C69.2933 20.1471 67.148 22.2922 64.501 22.2922C61.854 22.2922 59.7079 20.1471 59.7079 17.5001ZM67.6121 17.5003C67.6121 15.782 66.2191 14.3892 64.501 14.3892C62.7826 14.3892 61.3898 15.782 61.3898 17.5003C61.3898 19.2184 62.7826 20.6114 64.501 20.6114C66.2191 20.6114 67.6121 19.2184 67.6121 17.5003Z" fill="white"/>
<path d="M68.363 12.5182C68.363 11.8996 68.8647 11.3985 69.483 11.3985C70.1014 11.3985 70.6031 11.8998 70.6031 12.5182C70.6031 13.1365 70.1014 13.6382 69.483 13.6382C68.8647 13.6382 68.363 13.1365 68.363 12.5182Z" fill="white"/>
<path fill-rule="evenodd" clip-rule="evenodd" d="M60.6524 8.22314C61.648 8.17783 61.9661 8.16675 64.5009 8.16675H64.498C67.0336 8.16675 67.3505 8.17783 68.3461 8.22314C69.3397 8.26864 70.0183 8.42595 70.6133 8.65675C71.2278 8.89495 71.7469 9.21384 72.2661 9.73301C72.7853 10.2518 73.1042 10.7725 73.3433 11.3864C73.5728 11.9798 73.7303 12.6581 73.777 13.6517C73.8217 14.6473 73.8334 14.9654 73.8334 17.5002C73.8334 20.035 73.8217 20.3523 73.777 21.3479C73.7303 22.3411 73.5728 23.0195 73.3433 23.6132C73.1042 24.2269 72.7853 24.7476 72.2661 25.2664C71.7475 25.7855 71.2276 26.1052 70.6139 26.3436C70.0201 26.5744 69.3411 26.7317 68.3474 26.7772C67.3519 26.8225 67.0347 26.8336 64.4997 26.8336C61.9651 26.8336 61.6472 26.8225 60.6516 26.7772C59.6582 26.7317 58.9798 26.5744 58.3859 26.3436C57.7725 26.1052 57.2517 25.7855 56.7331 25.2664C56.2142 24.7476 55.8953 24.2269 55.6567 23.613C55.4261 23.0195 55.2688 22.3413 55.2231 21.3477C55.178 20.3521 55.1667 20.035 55.1667 17.5002C55.1667 14.9654 55.1784 14.6471 55.2229 13.6515C55.2676 12.6583 55.4251 11.9798 55.6565 11.3862C55.8957 10.7725 56.2146 10.2518 56.7337 9.73301C57.2525 9.21404 57.7732 8.89514 58.3871 8.65675C58.9806 8.42595 59.6588 8.26864 60.6524 8.22314ZM64.1899 9.84864C64.0011 9.84855 63.8262 9.84847 63.6636 9.84873V9.84639C61.9241 9.84834 61.5905 9.86001 60.7295 9.8989C59.8194 9.9407 59.3254 10.0924 58.9964 10.2207C58.5608 10.3903 58.2497 10.5925 57.923 10.9192C57.5963 11.2458 57.3937 11.5569 57.2246 11.9925C57.0968 12.3215 56.9447 12.8154 56.9031 13.7254C56.8584 14.7093 56.8495 15.0033 56.8495 17.4957C56.8495 19.9881 56.8584 20.2837 56.9031 21.2676C56.9446 22.1776 57.0968 22.6715 57.2246 23.0001C57.3941 23.4359 57.5963 23.7462 57.923 24.0729C58.2497 24.3995 58.5608 24.6018 58.9964 24.7709C59.3255 24.8987 59.8194 25.0507 60.7295 25.0927C61.7134 25.1375 62.0087 25.1472 64.5009 25.1472C66.993 25.1472 67.2885 25.1375 68.2724 25.0927C69.1824 25.0511 69.6767 24.8995 70.0053 24.7711C70.4411 24.602 70.7512 24.3997 71.0779 24.0731C71.4046 23.7466 71.6072 23.4365 71.7763 23.0009C71.9041 22.6723 72.0562 22.1784 72.0978 21.2684C72.1425 20.2845 72.1522 19.9889 72.1522 17.4981C72.1522 15.0072 72.1425 14.7116 72.0978 13.7277C72.0563 12.8177 71.9041 12.3238 71.7763 11.9952C71.6068 11.5597 71.4046 11.2485 71.0779 10.9219C70.7514 10.5952 70.4409 10.393 70.0053 10.2238C69.6763 10.0961 69.1824 9.94401 68.2724 9.9024C67.2883 9.85767 66.993 9.84873 64.5009 9.84873L64.1899 9.84864Z" fill="white"/>
<path fill-rule="evenodd" clip-rule="evenodd" d="M111.5 35C121.165 35 129 27.165 129 17.5C129 7.83502 121.165 0 111.5 0C101.835 0 94 7.83502 94 17.5C94 27.165 101.835 35 111.5 35Z" fill="#675DA9"/>
<rect x="94" width="35" height="35" rx="5" fill="#675DA9"/>
<path d="M121.327 13.1001L121.321 13.0754C120.825 11.0519 118.587 8.88067 116.532 8.42895L116.509 8.42414C113.185 7.78473 109.815 7.78473 106.491 8.42414L106.467 8.42895C104.413 8.88067 102.175 11.0519 101.678 13.0754L101.673 13.1001C101.059 15.9259 101.059 18.7916 101.673 21.6174L101.678 21.6421C102.154 23.5792 104.225 25.6507 106.204 26.2204V28.4791C106.204 29.2966 107.192 29.6981 107.753 29.1082L110.023 26.7294C110.515 26.7571 111.008 26.7726 111.5 26.7726C113.173 26.7726 114.847 26.6131 116.509 26.2934L116.532 26.2886C118.587 25.8369 120.825 23.6656 121.321 21.6422L121.327 21.6174C121.941 18.7916 121.941 15.9259 121.327 13.1001ZM119.531 21.2076C119.2 22.5277 117.501 24.1688 116.151 24.472C114.383 24.8109 112.602 24.9558 110.822 24.9061C110.787 24.9051 110.753 24.9189 110.728 24.9445C110.476 25.2059 109.071 26.6598 109.071 26.6598L107.309 28.4838C107.18 28.6193 106.954 28.5271 106.954 28.3401V24.5984C106.954 24.5366 106.91 24.4841 106.85 24.4722L106.849 24.472C105.499 24.1687 103.8 22.5276 103.468 21.2075C102.916 18.6533 102.916 16.064 103.468 13.5098C103.8 12.1897 105.499 10.5486 106.849 10.2454C109.935 9.65339 113.065 9.65339 116.151 10.2454C117.501 10.5486 119.2 12.1897 119.531 13.5098C120.084 16.0641 120.084 18.6534 119.531 21.2076Z" fill="white"/>
<path d="M114.437 22.9346C114.229 22.8711 114.031 22.8284 113.848 22.7515C111.944 21.9552 110.193 20.9279 108.805 19.3531C108.016 18.4575 107.398 17.4465 106.876 16.3766C106.629 15.8692 106.42 15.3419 106.207 14.8181C106.013 14.3404 106.299 13.8468 106.6 13.4869C106.882 13.1491 107.245 12.8906 107.638 12.7001C107.945 12.5514 108.248 12.6371 108.472 12.8995C108.957 13.4667 109.402 14.0629 109.763 14.7204C109.984 15.1248 109.924 15.6192 109.522 15.8944C109.424 15.9613 109.335 16.0398 109.244 16.1154C109.164 16.1816 109.089 16.2485 109.035 16.3381C108.935 16.5022 108.93 16.6957 108.994 16.874C109.49 18.2469 110.325 19.3144 111.695 19.8894C111.914 19.9814 112.135 20.0885 112.387 20.0588C112.81 20.009 112.947 19.541 113.244 19.2966C113.534 19.0576 113.904 19.0545 114.216 19.2537C114.528 19.4529 114.831 19.6668 115.132 19.883C115.427 20.0951 115.721 20.3027 115.993 20.5446C116.255 20.7772 116.345 21.0823 116.198 21.398C115.928 21.976 115.535 22.457 114.968 22.764C114.808 22.8505 114.617 22.8786 114.437 22.9346C114.617 22.8786 114.229 22.871 114.437 22.9346ZM111.505 12.0391C113.995 12.1094 116.04 13.7755 116.478 16.2576C116.553 16.6805 116.579 17.1129 116.612 17.5421C116.626 17.7226 116.525 17.8942 116.332 17.8965C116.132 17.8989 116.042 17.7305 116.029 17.5501C116.004 17.1928 115.986 16.834 115.937 16.4797C115.679 14.6095 114.201 13.0623 112.355 12.7303C112.077 12.6803 111.792 12.6672 111.511 12.6374C111.333 12.6185 111.1 12.6077 111.061 12.3847C111.028 12.1978 111.184 12.0489 111.361 12.0394C111.409 12.0367 111.457 12.0389 111.505 12.0391C113.995 12.1094 111.457 12.0389 111.505 12.0391Z" fill="white"/>
<path d="M115.289 16.9849C115.285 17.0163 115.283 17.09 115.264 17.1594C115.198 17.4115 114.819 17.4431 114.732 17.1887C114.706 17.1132 114.702 17.0273 114.702 16.946C114.701 16.4143 114.587 15.8831 114.321 15.4204C114.047 14.9449 113.63 14.5452 113.14 14.3033C112.844 14.1571 112.523 14.0662 112.199 14.012C112.057 13.9884 111.914 13.974 111.771 13.954C111.598 13.9298 111.506 13.8188 111.514 13.6471C111.522 13.4862 111.638 13.3705 111.812 13.3804C112.384 13.4131 112.935 13.5376 113.443 13.8089C114.476 14.3605 115.066 15.2312 115.239 16.3938C115.246 16.4465 115.259 16.4986 115.263 16.5515C115.273 16.6821 115.279 16.8128 115.289 16.9849C115.285 17.0163 115.279 16.8128 115.289 16.9849Z" fill="white"/>
<path d="M113.74 16.9242C113.532 16.928 113.42 16.8117 113.399 16.6192C113.384 16.4849 113.372 16.3488 113.34 16.2182C113.278 15.9609 113.142 15.7225 112.928 15.5648C112.826 15.4904 112.711 15.4361 112.591 15.4011C112.438 15.3566 112.28 15.3689 112.127 15.3312C111.962 15.2903 111.87 15.1551 111.896 14.9985C111.92 14.856 112.057 14.7447 112.212 14.756C113.177 14.8263 113.867 15.3295 113.965 16.4753C113.972 16.5562 113.981 16.6416 113.963 16.719C113.932 16.8514 113.835 16.9178 113.74 16.9242C113.835 16.9178 113.532 16.928 113.74 16.9242Z" fill="white"/>
<defs>
<linearGradient id="paint0_linear_8_429" x1="76.4014" y1="35" x2="53.5349" y2="6.28319e-07" gradientUnits="userSpaceOnUse">
<stop stop-color="#E09B3D"/>
<stop offset="0.3" stop-color="#C74C4D"/>
<stop offset="0.6" stop-color="#C21975"/>
<stop offset="1" stop-color="#7024C4"/>
</linearGradient>
<linearGradient id="paint1_linear_8_429" x1="76.4014" y1="35" x2="53.5349" y2="6.28319e-07" gradientUnits="userSpaceOnUse">
<stop stop-color="#E09B3D"/>
<stop offset="0.3" stop-color="#C74C4D"/>
<stop offset="0.6" stop-color="#C21975"/>
<stop offset="1" stop-color="#7024C4"/>
</linearGradient>
</defs>
</svg>
